HIERARCHY
ROOT Hips
{
	OFFSET 0.000000 0.000000 0.000000
	CHANNELS 6 Xposition Yposition Zposition Xrotation Yrotation Zrotation
	JOINT LeftUpLeg_virtual
	{
		OFFSET 0.000000 0.000000 0.000000
		CHANNELS 3 Xrotation Yrotation Zrotation
		JOINT LeftUpLeg
		{
			OFFSET 11.394100 -6.187798 -0.413800
			CHANNELS 3 Xrotation Yrotation Zrotation
			JOINT LeftLeg
			{
				OFFSET 0.430247 -32.302673 3.732800
				CHANNELS 3 Xrotation Yrotation Zrotation
				JOINT LeftFoot
				{
					OFFSET -0.430247 -48.264931 -6.423300
					CHANNELS 3 Xrotation Yrotation Zrotation
					JOINT LeftToeBase
					{
						OFFSET 4.230900 -16.068199 23.438400
						CHANNELS 3 Xrotation Yrotation Zrotation
						JOINT LeftToe_End
						{
							OFFSET 4.510700 0.695400 19.974600
							CHANNELS 3 Xrotation Yrotation Zrotation
							End Site
							{
								OFFSET 0 0 0
							}
						}
					}
				}
			}
		}
	}
	JOINT RightUpLeg_virtual
	{
		OFFSET 0.000000 0.000000 0.000000
		CHANNELS 3 Xrotation Yrotation Zrotation
		JOINT RightUpLeg
		{
			OFFSET -11.333700 -6.187798 -0.413800
			CHANNELS 3 Xrotation Yrotation Zrotation
			JOINT RightLeg
			{
				OFFSET -0.430392 -32.302628 3.733000
				CHANNELS 3 Xrotation Yrotation Zrotation
				JOINT RightFoot
				{
					OFFSET 0.430392 -48.264973 -6.423500
					CHANNELS 3 Xrotation Yrotation Zrotation
					JOINT RightToeBase
					{
						OFFSET -4.230900 -16.068199 23.438400
						CHANNELS 3 Xrotation Yrotation Zrotation
						JOINT RightToe_End
						{
							OFFSET -4.510700 0.695400 19.974600
							CHANNELS 3 Xrotation Yrotation Zrotation
							End Site
							{
								OFFSET 0 0 0
							}
						}
					}
				}
			}
		}
	}
	JOINT Spine_virtual
	{
		OFFSET 0.000000 0.000000 0.000000
		CHANNELS 3 Xrotation Yrotation Zrotation
		JOINT Spine
		{
			OFFSET -0.002400 12.777504 0.315300
			CHANNELS 3 Xrotation Yrotation Zrotation
			JOINT Spine1
			{
				OFFSET -0.002067 5.816869 0.032633
				CHANNELS 3 Xrotation Yrotation Zrotation
				JOINT Spine1_split
				{
					OFFSET -0.002067 5.816869 0.032633
					CHANNELS 3 Xrotation Yrotation Zrotation
					JOINT Spine2
					{
						OFFSET -0.002067 5.816869 0.032633
						CHANNELS 3 Xrotation Yrotation Zrotation
						JOINT Neck_virtual
						{
							OFFSET 0.000000 0.000000 0.000000
							CHANNELS 3 Xrotation Yrotation Zrotation
							JOINT Neck
							{
								OFFSET -0.003700 21.199493 -0.826900
								CHANNELS 3 Xrotation Yrotation Zrotation
								JOINT Head
								{
									OFFSET 0.000000 20.442200 4.834800
									CHANNELS 3 Xrotation Yrotation Zrotation
									JOINT HeadTop_End
									{
										OFFSET 0.000000 34.668396 4.968400
										CHANNELS 3 Xrotation Yrotation Zrotation
										End Site
										{
											OFFSET 0 0 0
										}
									}
								}
							}
						}
						JOINT LeftShoulder_virtual
						{
							OFFSET 0.000000 0.000000 0.000000
							CHANNELS 3 Xrotation Yrotation Zrotation
							JOINT LeftShoulder
							{
								OFFSET 3.288150 8.794197 -1.372250
								CHANNELS 3 Xrotation Yrotation Zrotation
								JOINT LeftShoulder_split
								{
									OFFSET 3.288150 8.794197 -1.372250
									CHANNELS 3 Xrotation Yrotation Zrotation
									JOINT LeftArm
									{
										OFFSET 11.953299 -2.279007 -0.146200
										CHANNELS 3 Xrotation Yrotation Zrotation
										JOINT LeftForeArm
										{
											OFFSET 18.448900 0.000000 0.000000
											CHANNELS 3 Xrotation Yrotation Zrotation
											JOINT LeftHand
											{
												OFFSET 29.527798 0.000000 0.000000
												CHANNELS 3 Xrotation Yrotation Zrotation
												End Site
												{
													OFFSET 0 0 0
												}
											}
										}
									}
								}
							}
						}
						JOINT RightShoulder_virtual
						{
							OFFSET 0.000000 0.000000 0.000000
							CHANNELS 3 Xrotation Yrotation Zrotation
							JOINT RightShoulder
							{
								OFFSET -3.249400 8.794197 -1.372250
								CHANNELS 3 Xrotation Yrotation Zrotation
								JOINT RightShoulder_split
								{
									OFFSET -3.249400 8.794197 -1.372250
									CHANNELS 3 Xrotation Yrotation Zrotation
									JOINT RightArm
									{
										OFFSET -11.953299 -2.279007 -0.146200
										CHANNELS 3 Xrotation Yrotation Zrotation
										JOINT RightForeArm
										{
											OFFSET -18.448900 0.000000 0.000000
											CHANNELS 3 Xrotation Yrotation Zrotation
											JOINT RightHand
											{
												OFFSET -29.527802 0.000000 0.000000
												CHANNELS 3 Xrotation Yrotation Zrotation
												End Site
												{
													OFFSET 0 0 0
												}
											}
										}
									}
								}
							}
						}
					}
				}
			}
		}
	}
}
MOTION
Frames: 8
Frame Time: 0.03333333
-0.065678 85.303543 -0.139523 0.000000 0.000000 0.000000 -5.398872 -46.271362 -0.212055 -38.933502 5.287476 17.886083 58.809739 -5.660337 4.384331 -17.445843 -8.502711 -15.880091 -1.594027 0.000012 0.000002 0.000000 0.000000 0.000000 -5.398872 -46.271362 -0.212055 -29.905464 -7.026615 -29.148621 58.364028 -9.468501 -7.709924 -19.429272 -5.380421 23.113867 -0.012999 0.000010 -0.000001 0.000000 0.000000 0.000000 -5.398872 -46.271362 -0.212055 9.456604 7.225527 -1.652085 2.187717 0.989895 -0.915630 0.000000 0.000000 0.000000 0.000000 0.000000 0.000000 2.202827 0.982777 -0.894153 0.084655 13.220554 4.538681 8.920925 20.138140 -4.130235 0.000000 0.000000 0.000000 2.202827 0.982777 -0.894153 1.117179 3.546345 -8.633310 0.000000 0.000000 0.000000 -53.487024 4.935510 -51.503000 -179.999950 -73.641932 -179.999937 0.000000 0.000000 0.000000 2.202827 0.982777 -0.894153 3.036131 13.027198 -5.371406 0.000000 0.000000 0.000000 -48.713705 27.172832 83.457057 179.999950 74.011698 -179.999950 0.000000 0.000000 0.000000 
0.221496 85.571930 -0.375668 0.000000 0.000000 0.000000 -5.978135 -46.664126 -0.086052 -37.957086 5.662474 17.142561 57.876168 -5.004626 4.381420 -16.997016 -8.495494 -16.026381 -1.594027 0.000010 0.000001 0.000000 0.000000 0.000000 -5.978135 -46.664126 -0.086052 -29.845478 -6.503333 -29.536692 58.139697 -9.305091 -7.677145 -19.042668 -5.226383 22.893484 -0.012999 0.000009 -0.000002 0.000000 0.000000 0.000000 -5.978135 -46.664126 -0.086052 9.084474 7.579328 -1.798591 3.124196 1.480132 -1.284678 0.000000 0.000000 0.000000 0.000000 0.000000 0.000000 3.136774 1.474867 -1.263946 0.728168 11.771768 3.506737 6.906010 19.480695 -3.816386 0.000000 0.000000 0.000000 3.136774 1.474867 -1.263946 0.863355 2.875884 -7.567500 0.000000 0.000000 0.000000 -50.820422 3.482951 -53.809760 179.999855 -75.592231 179.999868 0.000000 0.000000 0.000000 3.136774 1.474867 -1.263946 3.937035 14.543559 -4.656807 0.000000 0.000000 0.000000 -48.082100 26.964813 78.972478 -179.999896 72.842301 179.999896 0.000000 0.000000 0.000000 
0.538584 85.894409 -0.524521 0.000000 0.000000 0.000000 -6.829896 -46.457581 1.185028 -36.209428 6.360921 14.832423 56.248981 -4.181400 4.057464 -16.250589 -8.641899 -15.941458 -1.594027 0.000012 0.000002 0.000000 0.000000 0.000000 -6.829896 -46.457581 1.185028 -29.079308 -4.895136 -30.893779 58.093675 -8.911192 -7.514591 -18.621879 -6.439755 22.896812 -0.012999 0.000010 -0.000002 0.000000 0.000000 0.000000 -6.829896 -46.457581 1.185028 8.196983 9.659814 -2.503018 3.949818 2.831927 -1.994073 0.000000 0.000000 0.000000 0.000000 0.000000 0.000000 3.961721 2.828633 -1.970927 2.071402 9.285623 1.530601 7.438202 14.664109 -4.681024 0.000000 0.000000 0.000000 3.961721 2.828633 -1.970927 0.791110 2.710393 -7.177292 0.000000 0.000000 0.000000 -48.569892 -4.910041 -60.701414 -179.999418 -82.504225 -179.999404 0.000000 0.000000 0.000000 3.961721 2.828633 -1.970927 4.917515 16.582053 -3.718187 0.000000 0.000000 0.000000 -42.928388 23.446344 69.552185 -179.999855 69.842359 179.999841 0.000000 0.000000 0.000000 
0.809198 86.358871 0.082680 0.000000 0.000000 0.000000 -8.944173 -45.365150 3.949138 -32.271797 8.474626 10.045607 53.525454 -4.038342 3.196463 -15.381658 -9.024423 -14.820580 -1.594027 0.000010 0.000002 0.000000 0.000000 0.000000 -8.944173 -45.365150 3.949138 -25.408326 -1.675522 -34.259457 57.580523 -7.885421 -7.133453 -18.077434 -10.331149 23.687166 -0.012999 0.000009 -0.000002 0.000000 0.000000 0.000000 -8.944173 -45.365150 3.949138 5.796397 13.040555 -1.598773 4.236733 4.814901 -2.143511 0.000000 0.000000 0.000000 0.000000 0.000000 0.000000 4.249527 4.811980 -2.116262 3.891629 5.276001 -1.425511 13.797761 4.380305 -13.892209 0.000000 0.000000 0.000000 4.249527 4.811980 -2.116262 0.929806 3.188689 -7.519256 0.000000 0.000000 0.000000 -46.143815 -18.730149 -73.692345 -0.000334 -81.467880 -0.000334 0.000000 0.000000 0.000000 4.249527 4.811980 -2.116262 5.755398 17.273057 -2.428630 0.000000 0.000000 0.000000 -36.469211 18.420491 57.116087 179.999991 68.127196 -179.999991 0.000000 0.000000 0.000000 
1.300876 86.906288 0.374645 0.000000 0.000000 0.000000 -10.679219 -47.000717 5.865486 -28.183772 10.237068 7.595477 50.614646 -2.752902 1.099940 -14.611062 -9.583943 -14.022792 -1.594027 0.000008 0.000002 0.000000 0.000000 0.000000 -10.679219 -47.000717 5.865486 -23.351959 1.933950 -36.579263 56.934999 -7.168452 -7.021760 -17.125757 -11.710417 24.105384 -0.012999 0.000008 -0.000002 0.000000 0.000000 0.000000 -10.679219 -47.000717 5.865486 3.798710 12.948685 1.681883 4.753645 5.232792 -1.167312 0.000000 0.000000 0.000000 0.000000 0.000000 0.000000 4.761697 5.229830 -1.144616 4.253101 2.316221 -3.202344 12.483273 0.751023 -23.821039 0.000000 0.000000 0.000000 4.761697 5.229830 -1.144616 0.657217 2.448323 -5.888065 0.000000 0.000000 0.000000 -38.859951 -20.796201 -78.116955 0.000076 -72.965968 0.000070 0.000000 0.000000 0.000000 4.761697 5.229830 -1.144616 6.330081 17.071515 -0.268318 0.000000 0.000000 0.000000 -39.002696 25.029247 51.536803 -179.999800 73.115618 179.999786 0.000000 0.000000 0.000000 
2.027069 87.515343 0.188683 0.000000 0.000000 0.000000 -10.289701 -53.033270 6.875552 -25.370087 10.821943 8.291026 48.346394 0.981560 -2.036861 -14.444800 -9.000345 -14.298068 -1.594027 0.000010 0.000001 0.000000 0.000000 0.000000 -10.289701 -53.033270 6.875552 -26.168003 6.111670 -36.470120 56.359951 -6.903677 -7.272762 -15.703964 -8.093318 23.590714 -0.012999 0.000009 -0.000001 0.000000 0.000000 0.000000 -10.289701 -53.033270 6.875552 3.945828 10.123153 4.668684 6.162755 4.421794 -0.121475 0.000000 0.000000 0.000000 0.000000 0.000000 0.000000 6.163488 4.420178 -0.107412 2.638658 1.189296 -2.695918 1.553739 6.131258 -25.342761 0.000000 0.000000 0.000000 6.163488 4.420178 -0.107412 0.009660 0.674606 -1.907883 0.000000 0.000000 0.000000 -26.876123 -12.638234 -75.502537 -0.000110 -75.242170 -0.000106 0.000000 0.000000 0.000000 6.163488 4.420178 -0.107412 6.579912 18.426104 3.399833 0.000000 0.000000 0.000000 -48.244676 40.936346 53.198523 179.999500 81.771544 -179.999486 0.000000 0.000000 0.000000 
2.967223 88.217621 -0.073975 0.000000 0.000000 0.000000 -7.507252 -62.449581 8.681195 -23.372358 11.907419 9.062396 46.489324 4.035085 -3.792423 -14.612300 -4.190205 -14.924124 -1.594027 0.000010 0.000001 0.000000 0.000000 0.000000 -7.507252 -62.449581 8.681195 -32.262419 10.735504 -34.002816 55.116338 -6.562634 -7.447448 -13.528770 -1.443864 22.242851 -0.012999 0.000009 -0.000002 0.000000 0.000000 0.000000 -7.507252 -62.449581 8.681195 5.913800 7.568995 7.528696 8.362190 3.752109 1.011920 0.000000 0.000000 0.000000 0.000000 0.000000 0.000000 8.357379 3.753396 1.020015 0.462128 0.430531 -0.244599 -12.981487 13.966406 -20.992397 0.000000 0.000000 0.000000 8.357379 3.753396 1.020015 -0.669790 -1.238718 3.513048 0.000000 0.000000 0.000000 -13.221576 -5.508989 -76.505823 0.000095 -76.403001 0.000123 0.000000 0.000000 0.000000 8.357379 3.753396 1.020015 6.422151 19.721473 7.777995 0.000000 0.000000 0.000000 -64.104078 58.649496 62.956592 -179.744870 89.573416 179.745430 0.000000 0.000000 0.000000 
3.929651 88.917717 -0.400757 0.000000 0.000000 0.000000 -2.246272 -73.033505 11.915059 -21.859694 13.368983 10.589984 45.219670 7.133781 -4.538417 -14.829545 1.526479 -16.096539 -1.594027 0.000008 0.000002 0.000000 0.000000 0.000000 -2.246272 -73.033505 11.915059 -39.206768 13.355357 -28.925103 52.743861 -5.939650 -7.654284 -10.711115 6.210609 20.129865 -0.012999 0.000008 -0.000002 0.000000 0.000000 0.000000 -2.246272 -73.033505 11.915059 9.764012 5.858777 10.471004 11.431919 3.474164 2.359653 0.000000 0.000000 0.000000 0.000000 0.000000 0.000000 11.423053 3.482326 2.363050 -0.333362 -0.473403 2.778172 -30.322119 19.209538 -13.058879 0.000000 0.000000 0.000000 11.423053 3.482326 2.363050 -1.111544 -4.632742 9.145119 0.000000 0.000000 0.000000 -0.794761 -5.488997 -80.359634 0.000020 -75.164838 0.000013 0.000000 0.000000 0.000000 11.423053 3.482326 2.363050 6.400773 19.782501 10.696834 0.000000 0.000000 0.000000 -98.931001 70.420480 93.027149 -0.001102 86.438715 0.001057 0.000000 0.000000 0.000000 
